<?xml version="1.0" standalone="no"?>
<!DOCTYPE svg PUBLIC "-//W3C//DTD SVG 20010904//EN"
 "http://www.w3.org/TR/2001/REC-SVG-20010904/DTD/svg10.dtd">
<svg version="1.0" xmlns="http://www.w3.org/2000/svg"
 width="1920.000000pt" height="655.000000pt" viewBox="0 0 1920.000000 655.000000"
 preserveAspectRatio="xMidYMid meet">

<g transform="translate(0.000000,655.000000) scale(0.100000,-0.100000)"
fill="#000000" stroke="none">
<path d="M5848 4779 c-156 -18 -288 -78 -391 -180 -110 -109 -146 -222 -146
-449 0 -222 38 -339 144 -446 69 -69 184 -131 295 -161 102 -28 303 -25 400 6
254 79 403 247 387 436 -8 90 -18 95 -187 95 -76 0 -146 -3 -155 -6 -9 -4 -32
-39 -50 -79 -47 -104 -114 -148 -225 -148 -79 0 -158 38 -187 90 -17 31 -22
63 -27 173 -8 146 2 228 32 270 10 14 42 37 72 53 133 67 312 1 337 -126 3
-15 17 -36 31 -47 22 -18 41 -20 172 -20 184 0 195 6 194 97 -2 98 -35 166
-123 254 -145 145 -354 214 -573 188z"/>
<path d="M9685 4752 c-92 -24 -132 -42 -203 -91 -184 -125 -291 -360 -264
-577 20 -152 73 -262 178 -366 71 -70 133 -111 223 -146 88 -33 265 -43 360
-18 179 46 327 166 405 331 47 97 61 164 60 280 -1 81 -6 115 -28 178 -65 191
-207 334 -396 397 -92 31 -242 36 -335 12z m237 -348 c67 -22 120 -73 153
-145 49 -111 23 -225 -71 -308 -47 -41 -120 -71 -174 -71 -101 0 -214 80 -250
178 -52 136 21 299 155 346 54 19 131 19 187 0z"/>
<path d="M15420 4754 c-165 -35 -337 -170 -413 -321 -176 -357 16 -781 398
-878 77 -20 230 -19 309 1 211 54 387 235 442 454 23 89 15 251 -15 340 -102
297 -412 471 -721 404z m245 -358 c123 -58 187 -187 151 -309 -56 -191 -271
-264 -427 -144 -157 119 -123 373 61 456 63 29 150 28 215 -3z"/>
<path d="M2843 4745 c-22 -15 -23 -23 -23 -145 0 -169 -12 -160 217 -160 160
0 173 -1 183 -19 6 -13 10 -165 10 -426 0 -261 4 -413 10 -426 10 -18 23 -19
170 -19 153 0 159 1 174 22 14 19 16 78 16 433 0 306 3 414 12 423 8 8 64 12
185 12 222 0 213 -7 213 158 0 86 -4 123 -14 138 -14 18 -33 19 -573 22 -495
2 -561 1 -580 -13z"/>
<path d="M4155 4736 l-25 -25 0 -558 c0 -489 2 -561 16 -581 l15 -22 519 0
520 0 16 25 c13 19 15 46 12 135 -3 97 -6 114 -22 126 -16 11 -80 14 -347 14
-315 0 -327 1 -353 21 -35 28 -36 80 -1 114 l24 25 279 0 c248 0 281 2 293 17
22 26 25 207 5 238 l-16 25 -271 0 c-323 0 -339 4 -339 89 0 16 10 37 23 49
23 22 28 22 345 22 393 0 362 -13 362 153 0 82 -4 119 -14 133 -14 18 -33 19
-515 22 l-501 3 -25 -25z"/>
<path d="M6720 4753 c-40 -14 -40 -17 -40 -604 0 -503 2 -569 16 -583 13 -13
44 -16 183 -16 116 0 171 4 179 12 9 9 12 69 12 208 0 178 2 198 18 213 16 14
43 17 175 17 144 0 157 -1 167 -19 6 -12 10 -97 10 -206 0 -109 4 -194 10
-206 10 -18 23 -19 183 -19 121 0 177 4 185 12 9 9 12 154 12 589 l0 578 -22
15 c-18 13 -53 16 -175 16 -207 0 -193 17 -193 -233 0 -137 -3 -196 -12 -205
-8 -8 -59 -12 -165 -12 -207 0 -193 -16 -193 229 0 237 14 221 -190 220 -80 0
-152 -3 -160 -6z"/>
<path d="M8017 4742 c-15 -17 -17 -73 -17 -593 0 -434 3 -578 12 -587 8 -8 59
-12 163 -12 104 0 155 4 163 12 9 9 12 72 12 224 0 190 2 214 18 234 37 46 56
26 217 -216 82 -124 158 -232 169 -240 15 -10 56 -14 162 -14 124 0 143 2 157
18 15 17 17 72 17 585 0 554 0 567 -20 587 -18 18 -33 20 -160 20 -194 0 -180
21 -180 -270 l0 -230 -26 -12 c-18 -8 -30 -9 -42 -1 -9 5 -83 115 -163 244
-81 128 -157 241 -169 251 -19 15 -42 18 -160 18 -120 0 -139 -2 -153 -18z"/>
<path d="M10447 4742 c-9 -10 -17 -21 -17 -25 0 -3 86 -259 190 -569 134 -394
197 -568 212 -580 18 -16 45 -18 234 -18 196 0 216 2 233 19 10 10 41 85 69
167 27 82 111 330 186 552 75 221 136 413 136 425 0 42 -16 47 -162 47 -144 0
-179 -8 -196 -44 -6 -11 -67 -193 -137 -403 -70 -211 -128 -383 -130 -383 -2
0 -62 177 -135 394 -87 263 -138 400 -151 412 -18 16 -41 19 -168 22 -134 3
-148 2 -164 -16z"/>
<path d="M11962 4750 c-13 -6 -29 -24 -36 -42 -33 -79 -376 -1097 -376 -1114
0 -40 18 -44 175 -44 115 0 155 3 171 15 12 7 35 52 53 99 19 49 42 92 54 101
27 19 341 22 381 4 20 -9 31 -30 51 -90 15 -43 35 -89 46 -103 20 -26 21 -26
178 -26 160 0 181 5 181 40 0 8 -86 268 -191 578 -177 520 -194 564 -220 578
-22 11 -73 14 -236 13 -114 0 -218 -4 -231 -9z m298 -504 l59 -176 -126 0
c-96 0 -124 3 -121 13 3 6 31 87 63 180 32 92 60 166 62 164 2 -2 30 -84 63
-181z"/>
<path d="M12720 4740 c-18 -18 -20 -33 -20 -139 0 -95 3 -123 16 -135 13 -13
44 -16 182 -16 136 0 172 -3 190 -16 l22 -15 0 -412 c0 -357 2 -416 16 -435
15 -21 21 -22 169 -22 126 0 156 3 169 16 14 13 16 67 16 433 0 377 2 420 17
432 12 10 61 15 192 17 104 2 181 8 188 14 9 7 13 47 13 138 0 110 -2 129 -18
143 -17 15 -71 17 -575 17 -544 0 -557 0 -577 -20z"/>
<path d="M14020 4740 c-18 -18 -20 -33 -20 -139 0 -147 3 -151 100 -151 70 0
119 -12 132 -33 4 -7 8 -128 8 -269 0 -305 8 -288 -127 -288 -110 0 -113 -5
-113 -161 0 -100 3 -118 18 -132 17 -15 60 -17 413 -17 294 0 398 3 407 12 8
8 12 53 12 138 0 159 -1 160 -118 160 -127 0 -122 -13 -122 289 0 307 -5 294
127 300 48 1 94 8 101 13 8 7 12 48 12 138 0 110 -2 129 -18 143 -17 15 -59
17 -405 17 -374 0 -388 -1 -407 -20z"/>
<path d="M16317 4742 c-15 -17 -17 -73 -17 -593 0 -434 3 -578 12 -587 8 -8
59 -12 163 -12 104 0 155 4 163 12 9 9 12 72 12 224 0 190 2 214 18 234 37 46
56 26 217 -216 82 -124 158 -232 169 -240 15 -10 56 -14 162 -14 124 0 143 2
157 18 15 17 17 72 17 585 0 554 0 567 -20 587 -18 18 -33 20 -160 20 -194 0
-180 21 -180 -270 l0 -230 -26 -12 c-18 -8 -30 -9 -42 -2 -9 6 -80 114 -159
240 -79 126 -154 239 -169 252 -23 21 -34 22 -163 22 -121 0 -140 -2 -154 -18z"/>
</g>
</svg>
