<?xml version="1.0" standalone="no"?>
<!DOCTYPE svg PUBLIC "-//W3C//DTD SVG 20010904//EN"
 "http://www.w3.org/TR/2001/REC-SVG-20010904/DTD/svg10.dtd">
<svg version="1.0" xmlns="http://www.w3.org/2000/svg"
 width="160.000000pt" height="160.000000pt" viewBox="0 0 160.000000 160.000000"
 preserveAspectRatio="xMidYMid meet">

<g transform="translate(0.000000,160.000000) scale(0.100000,-0.100000)"
fill="#000000" stroke="none">
<path d="M305 1217 c-3 -7 -4 -154 -2 -327 l2 -315 3 322 2 323 288 3 287 2
-288 3 c-224 1 -289 -1 -292 -11z"/>
<path d="M933 1223 c9 -2 23 -2 30 0 6 3 -1 5 -18 5 -16 0 -22 -2 -12 -5z"/>
<path d="M1080 1177 c0 -2 15 -16 33 -33 l32 -29 -29 33 c-28 30 -36 37 -36
29z"/>
<path d="M817 943 c-4 -3 -7 -37 -7 -74 l0 -68 98 -3 97 -3 5 -220 5 -220 85
0 85 0 3 209 c1 130 6 214 13 222 7 9 43 14 102 16 l92 3 3 58 c2 35 -2 64 -9
73 -9 11 -62 14 -289 14 -152 0 -280 -3 -283 -7z"/>
</g>
</svg>
